<svg xmlns="http://www.w3.org/2000/svg" fill="none" viewBox="0 0 17 26" height="26" width="17">
<g clip-path="url(#clip0_1016_4088)">
<path fill="#2B4837" d="M4.95144 20.5131C9.01937 19.4974 13.0175 17.6267 15.2273 13.7987C17.5244 9.82264 17.2251 5.06311 16.3621 0.706813C16.2573 0.181097 15.6637 -0.0919698 15.1923 0.0279753C11.0795 1.0692 6.95173 2.93473 4.70951 6.82146C2.4199 10.7873 2.80399 15.5239 3.78169 19.8342C4.05854 21.0541 5.89173 20.5386 5.61488 19.3162C4.7569 15.529 4.32541 11.3028 6.35065 7.80399C8.34595 4.35876 12.0672 2.82244 15.6987 1.90371C15.3096 1.67658 14.918 1.452 14.5289 1.22487C15.2871 5.05291 15.6163 9.31478 13.5861 12.8162C11.6207 16.2052 8.03169 17.7416 4.44513 18.6373C3.25792 18.9334 3.75924 20.8116 4.95144 20.5131Z"></path>
<path fill="#2B4837" d="M10.1751 8.03421C7.32186 13.863 3.99469 19.3805 0.183655 24.6045C-0.54962 25.6074 1.1015 26.5798 1.82479 25.587C5.63832 20.363 8.96549 14.8456 11.8188 9.01673C12.365 7.9015 10.7263 6.91387 10.1776 8.03421H10.1751Z"></path>
</g>
<defs>
<clipPath id="clip0_1016_4088">
<rect fill="white" height="26" width="17"></rect>
</clipPath>
</defs>
</svg>
