<svg xmlns="http://www.w3.org/2000/svg" fill="none" viewBox="0 0 18 21" height="21" width="18">
<g clip-path="url(#clip0_1016_4083)">
<path fill="#2B4837" d="M0.111681 3.93112C-1.3878 9.60957 15.1297 9.14621 17.4794 5.73699C19.7781 2.39989 13.8467 0.478938 11.6283 0.182818C8.02494 -0.298953 1.74102 -0.0734106 0.111681 3.93112C-0.175849 4.63843 0.978909 4.94529 1.2618 4.24565C2.49849 1.2062 7.80388 1.05123 10.5122 1.25223C12.1137 1.37037 19.3406 3.23761 15.8053 5.6388C13.9131 6.92454 0.233804 8.13971 1.2618 4.24719C1.45658 3.50919 0.30646 3.19465 0.111681 3.93265V3.93112Z"></path>
<path fill="#2B4837" d="M2.39461e-05 4.73283C0.0309412 8.50415 0.131422 12.3414 0.718849 16.0713C0.915173 17.3172 1.06512 18.8684 2.13795 19.6969C3.57251 20.8062 6.16337 20.866 7.88701 20.9473C9.87034 21.0409 12.4519 21.1161 14.2498 20.1112C15.5761 19.3701 15.893 17.9294 16.2331 16.547C17.1807 12.702 17.578 8.66832 17.9289 4.7313C17.9969 3.97182 16.802 3.97642 16.7355 4.7313C16.4603 7.82292 16.0955 10.9222 15.5452 13.977C15.2917 15.3809 15.134 17.9156 13.9499 18.9144C12.5555 20.0912 9.58281 19.8426 7.88855 19.7629C6.43699 19.6938 3.49212 19.7153 2.52596 18.3912C1.65255 17.1944 1.72675 14.8101 1.59844 13.4308C1.33101 10.5432 1.21816 7.63113 1.19497 4.7313C1.18724 3.97029 -0.0061595 3.96875 2.39461e-05 4.73283Z"></path>
<path fill="#2B4837" d="M3.02246 10.0106C3.02246 10.0106 3.02246 16.7063 4.05973 17.7358C5.09701 18.7653 11.8431 18.7653 12.882 17.2203C13.9192 15.6753 13.9192 10.0091 13.9192 10.0091C10.3375 9.156 6.7047 9.14526 3.02246 10.0091V10.0106Z"></path>
</g>
<defs>
<clipPath id="clip0_1016_4083">
<rect fill="white" height="21" width="18"></rect>
</clipPath>
</defs>
</svg>
