<svg xmlns="http://www.w3.org/2000/svg" fill="none" viewBox="0 0 16 19" height="19" width="16">
<path fill="#2B4837" d="M14.5277 11.3665C14.5277 11.3683 14.5273 11.3699 14.5264 11.3714C14.0099 12.2669 13.4371 13.3609 12.7732 14.39C11.4573 16.4328 9.54638 17.7398 7.27937 18.5318C4.89076 19.3628 2.69758 18.5448 1.4859 16.2986C0.222105 13.9572 -0.316419 11.4644 0.187361 8.79409C0.625997 6.47002 1.53801 4.33205 2.73666 2.31526C3.50102 1.02556 4.56069 0.121033 6.20666 0.233558C6.33261 0.242214 6.46724 0.224902 6.59318 0.194607C8.91231 -0.40264 10.8145 0.428312 12.4779 1.95605C13.138 2.56628 13.7286 3.27173 14.2628 3.99448C15.5049 5.66937 15.7915 7.53468 15.1748 9.5255C15.0012 10.0791 14.7929 10.624 14.5283 11.3632C14.5279 11.3643 14.5277 11.3654 14.5277 11.3665ZM8.40669 2.13533C8.40749 2.13453 8.40885 2.13495 8.4091 2.13605C8.50438 2.56312 8.58235 2.85683 8.63436 3.15054C8.75596 3.84733 8.94705 4.54845 8.97311 5.24956C9.04694 7.53035 8.79505 9.77219 7.95686 11.9188C7.46177 13.1826 6.94062 14.442 6.44552 15.7057C6.19932 16.324 6.86661 16.5956 7.47843 16.3337C8.83757 15.7519 10.034 14.9033 10.884 13.598C11.657 12.4122 12.3128 11.1398 12.9382 9.86308C13.9371 7.82898 13.5592 5.95501 12.0479 4.31474C11.5268 3.74779 10.9274 3.2371 10.3064 2.77835C9.80767 2.40668 9.23533 2.12565 8.40776 2.13777C8.40647 2.13779 8.40578 2.13623 8.40669 2.13533ZM3.80068 16.2514C3.80068 16.2525 3.80222 16.2529 3.80284 16.2519C4.16196 15.6831 4.36549 15.4411 4.47818 15.1604C5.17305 13.4206 5.91569 11.6938 6.49764 9.91501C7.02748 8.30504 7.09696 6.60419 6.96668 4.92064C6.90498 4.12135 6.77024 3.31937 6.25713 2.6998C5.98967 2.37685 5.48051 2.27317 5.14699 2.52733C4.94287 2.68313 4.73007 2.85625 4.60412 3.07264C3.3273 5.19763 2.285 7.42648 2.02876 9.91934C1.80728 12.1048 2.3718 14.1215 3.80048 16.2507C3.80061 16.2509 3.80068 16.2511 3.80068 16.2514Z"></path>
</svg>
